<?xml version="1.0" standalone="no"?>
<!DOCTYPE svg PUBLIC "-//W3C//DTD SVG 20010904//EN"
 "http://www.w3.org/TR/2001/REC-SVG-20010904/DTD/svg10.dtd">
<svg version="1.0" xmlns="http://www.w3.org/2000/svg"
 width="512.000000pt" height="512.000000pt" viewBox="0 0 512.000000 512.000000"
 preserveAspectRatio="xMidYMid meet">
<metadata>
Created by potrace 1.11, written by Peter Selinger 2001-2013
</metadata>
<g transform="translate(0.000000,512.000000) scale(0.100000,-0.100000)"
fill="#000000" stroke="none">
<path d="M2365 4953 c-294 -24 -606 -112 -879 -248 -235 -118 -427 -257 -616
-445 -286 -284 -483 -609 -602 -990 -79 -254 -108 -470 -103 -772 1 -108 5
-200 8 -205 3 -4 8 -35 12 -68 42 -373 224 -806 474 -1129 380 -491 971 -838
1551 -911 30 -4 82 -11 115 -15 65 -9 482 -6 530 4 31 6 60 11 130 22 81 12
303 73 400 109 460 170 876 494 1150 893 167 243 321 590 360 812 3 18 8 36
10 40 3 4 7 22 9 41 3 19 7 43 10 55 2 12 7 45 11 74 4 29 9 62 12 74 9 37 11
439 2 501 -5 33 -11 82 -14 108 -4 41 -14 89 -50 256 -2 9 -15 52 -28 96 -116
376 -311 703 -579 976 -162 165 -237 227 -413 342 -290 189 -636 319 -970 363
-27 3 -59 8 -70 11 -24 5 -404 10 -460 6z"/>
</g>
</svg>
